# xmcd
#
# Track frame offsets:
#	183
#	14283
#	33563
#	50470
#	65605
#	82975
#	97978
#	113450
#	127950
#	152025
#	167803
#	188760
#
# Disc length: 2673
#
# Revision: 1
# Processed by: cddbd v1.5.1PL0 Copyright (c) Steve Scherf et al.
# Submitted via: CDex 1.50
# Normalized: r0:DSETVAR1,TDELIM( - )
#
DISCID=8d0a6f0c
DTITLE=Various Artist - The Best Of Country Rock
DYEAR=1989
DGENRE=Country
TTITLE0=Hank Williams, Jr. - Move It On Over
TTITLE1=Jo-El Sonnier - Tear Stained Letter
TTITLE2=Mac Davis - Hooked On Music
TTITLE3=Sawyer Brown - Betty's Bein' Bad
TTITLE4=Dolly Parton - Great Balls Of Fire
TTITLE5=David Lynn Jones - Bonnie Jean
TTITLE6=Jerry Lee Lewis - Rockin' My Life Away
TTITLE7=T. Graham Brown - Rock It, Billy
TTITLE8=Ronnie Milsap - Money
TTITLE9=K.D. Lang - Tune Into My Wave
TTITLE10=Marshall Tucker Band - Dream Lover
TTITLE11=Mel McDaniel - Stand On It
EXTD=YEAR: 1989
EXTT0=
EXTT1=
EXTT2=
EXTT3=
EXTT4=
EXTT5=
EXTT6=
EXTT7=
EXTT8=
EXTT9=
EXTT10=
EXTT11=
PLAYORDER=
